<svg fill="none" height="32" viewBox="0 0 32 32" width="32" xmlns="http://www.w3.org/2000/svg" xmlns:xlink="http://www.w3.org/1999/xlink"><linearGradient id="a" gradientUnits="userSpaceOnUse" x1="6.27673" x2="25.1832" y1="6.2767" y2="26.2635"><stop offset=".0273393" stop-color="#949aa0"/><stop offset=".403335" stop-color="#1a1d1e"/><stop offset="1" stop-color="#040606"/></linearGradient><linearGradient id="b" gradientUnits="userSpaceOnUse" x1="16.0002" x2="16.0002" y1="7.63232" y2="24.3672"><stop offset="0" stop-color="#7cd1f4"/><stop offset="1" stop-color="#1274b9"/></linearGradient><path d="m16 2c-7.73189 0-14 6.26811-14 14 0 7.7319 6.26811 14.0001 14 14.0001 7.7319 0 14-6.2682 14-14.0001 0-7.73189-6.2681-14-14-14z" fill="url(#a)"/><path d="m15.9999 24.9426c-4.9389 0-8.94277-4.0038-8.94277-8.9427s4.00387-8.94277 8.94277-8.94277c4.9388 0 8.9427 4.00387 8.9427 8.94277s-4.0038 8.9427-8.9427 8.9427z" fill="#fff"/><path d="m7.63281 15.9997h8.36739v-8.36738c-4.6211 0-8.36739 3.74638-8.36739 8.36738zm8.36739 0v8.3675c4.6212 0 8.3674-3.7463 8.3674-8.3675z" fill="url(#b)"/><g fill="#fff"><path clip-rule="evenodd" d="m8.24351 7.35914c.43017-.2667.88838-.17986 1.18482.10826.45548.44274.38848.95465-.04479 1.471l-1.89626 2.2598-2.82664-2.37188 1.79814-2.14288c.37217-.44352.89252-.79772 1.38695-.38284.00914.00767.01797.01503.02652.02217.13439.11211.202.16851.37623.48623.04363.1199.07719.33721-.00497.55014zm-.80204-.13581c-.18187-.15256-.46465-.15869-.58977-.00953l-1.08003 1.28707.66812.56064 1.06782-1.27256c.13429-.15996.13381-.39784-.06614-.56562zm.18429 2.83337 1.12584-1.34168c.14952-.17816.12792-.45579-.09024-.63874-.19272-.16178-.47848-.1173-.60664.03544l-1.13494 1.3526z" fill-rule="evenodd"/><path d="m17.4393 3.87616-.9707 2.57299h-.806l-.9708-2.57299v2.57299h-.7377v-3.68499h1.1085l1.003 2.62475 1.003-2.62475h1.1085v3.68499h-.7378z"/><path d="m24.9987 9.94876 1.389-1.96653-.6117-.75538-2.2123.9498 1.4476-1.89377-.5701-.7041-2.3118 2.97368.6757.8277 2.1839-.8987.0078.00977-1.3331 1.94927.6692.833 3.3893-1.64296-.5702-.7041z"/></g></svg>